<svg xmlns="http://www.w3.org/2000/svg" width="1280" height="760" viewBox="0 0 1280 760"><rect width="1280" height="760" fill="#f4f7fa"/><text x="80" y="90" font-family="Arial" font-size="36" font-weight="700" fill="#16232f">BB HEMS</text><text x="80" y="125" font-family="Arial" font-size="18" fill="#637486">Energiestatus, Einstellungen und Entscheidungslogik</text><g fill="#fff" stroke="#d9e2ea"><rect x="80" y="170" width="180" height="100" rx="8"/><rect x="280" y="170" width="180" height="100" rx="8"/><rect x="480" y="170" width="180" height="100" rx="8"/><rect x="680" y="170" width="180" height="100" rx="8"/><rect x="80" y="310" width="780" height="260" rx="8"/><rect x="900" y="310" width="300" height="260" rx="8"/></g><g font-family="Arial" fill="#16232f"><text x="105" y="220" font-size="16">Modus</text><text x="105" y="250" font-size="28">surplus</text><text x="305" y="220" font-size="16">PV gesamt</text><text x="305" y="250" font-size="28">684 W</text><text x="505" y="220" font-size="16">Batterie</text><text x="505" y="250" font-size="28">82 %</text><text x="705" y="220" font-size="16">Verbraucher</text><text x="705" y="250" font-size="28">2 aktiv</text><text x="110" y="360" font-size="22" font-weight="700">Warum entscheidet BB HEMS so?</text><text x="110" y="410" font-size="18">Überschuss verfügbar</text><text x="110" y="450" font-size="18">Batterieschutz inaktiv</text><text x="110" y="490" font-size="18">Flexible Verbraucher erlaubt</text><text x="930" y="360" font-size="22" font-weight="700">BB HEMS Einstellungen</text><text x="930" y="410" font-size="18">Betriebsart: auto</text><text x="930" y="450" font-size="18">Mindest-SoC: 50 %</text><text x="930" y="490" font-size="18">PV-Schwelle: 180 W</text></g></svg>
