<svg xmlns="http://www.w3.org/2000/svg" width="1464" height="1730" viewBox="0 0 1464 1730" role="img" aria-labelledby="title desc">
  <title id="title">BB HEMS dashboard screenshot</title>
  <desc id="desc">Dashboard screenshot style view of BB HEMS with current status, energy flow, decisions, event history, configuration and settings.</desc>
  <style>
    text{font-family:Arial,Helvetica,sans-serif;fill:#111}
    .muted{fill:#666}.small{font-size:12px}.label{font-size:13px;font-weight:700;fill:#555}.h1{font-size:28px;font-weight:700}.h2{font-size:16px;font-weight:700}.big{font-size:24px;font-weight:700}.card{fill:#fff;stroke:#e5e5e5}.soft{fill:#f6fbff;stroke:#8ec8ed}.line{stroke:#eee}.ok{fill:#087b56}.warn{fill:#a76000}.btn{fill:#eaf7ff;stroke:#49aee8}.field{fill:#fff;stroke:#e7e7e7}
  </style>
  <rect width="1464" height="1730" fill="#fafafa"/>
  <text x="34" y="37" class="h1">BB HEMS</text>
  <text x="34" y="62" class="muted" font-size="14">Version 0.1.6 · Live-Status, Freigaben, Schutzlogik und konfigurierte Energiequellen</text>
  <rect x="1268" y="14" width="156" height="30" rx="15" class="card"/>
  <circle cx="1284" cy="29" r="5" class="ok"/><text x="1300" y="34" font-size="14">Aktuell: surplus_high</text>

  <g>
    <rect x="34" y="80" width="338" height="98" rx="7" class="soft"/>
    <rect x="385" y="80" width="338" height="98" rx="7" class="card"/>
    <rect x="736" y="80" width="338" height="98" rx="7" class="card"/>
    <rect x="1088" y="80" width="338" height="98" rx="7" class="card"/>
    <text x="48" y="104" class="small muted">Betrieb</text><text x="185" y="104" class="small muted">sensor.bb_hems_energiemodus</text><text x="48" y="134" class="big">surplus_high</text><text x="48" y="158" class="small muted">Aktueller HEMS-Modus</text>
    <text x="399" y="104" class="small muted">Netz</text><text x="544" y="104" class="small muted">sensor.bb_hems_netzleistung_aktuell</text><text x="399" y="138" class="big">5.0 W</text><text x="399" y="160" class="small muted">Negativ = Einspeisung</text>
    <text x="750" y="104" class="small muted">PV</text><text x="858" y="104" class="small muted">sensor.bb_hems_pv_leistung_gesamt</text><text x="750" y="138" class="big">1036.0 W</text><text x="750" y="160" class="small muted">Summe aller PV-Quellen</text>
    <text x="1102" y="104" class="small muted">Batterie</text><text x="1195" y="104" class="small muted">sensor.bb_hems_batterie_soc_minimum</text><text x="1102" y="138" class="big">95.8 %</text><text x="1102" y="160" class="small muted">Niedrigster SoC</text>
  </g>

  <rect x="34" y="192" width="872" height="182" rx="7" class="card"/>
  <text x="49" y="219" class="h2">Energiefluss</text><text x="774" y="219" class="muted small">26.5.2026, 11:11:22</text>
  <rect x="49" y="251" width="254" height="105" rx="7" class="card"/><text x="63" y="276" class="label">PV-Erzeugung</text><text x="63" y="309" class="big">1036.0 W</text><text x="63" y="333" class="small muted">Aus allen PV- und Balkonkraftwerk-Sensoren</text>
  <text x="318" y="310" font-size="24" fill="#555">&gt;</text>
  <rect x="342" y="251" width="254" height="105" rx="7" class="card"/><text x="356" y="276" class="label">Batterie</text><text x="356" y="309" class="big">7.9 W</text><text x="356" y="333" class="small muted">Entladung und SoC-Schutz</text>
  <text x="610" y="310" font-size="24" fill="#555">&gt;</text>
  <rect x="635" y="251" width="254" height="105" rx="7" class="card"/><text x="649" y="276" class="label">Netzanschluss</text><text x="649" y="309" class="big">5.0 W</text><text x="649" y="333" class="small muted">Bezug oder Einspeisung</text>

  <rect x="34" y="386" width="872" height="244" rx="7" class="card"/>
  <text x="49" y="414" class="h2">Entscheidung</text><text x="590" y="414" class="muted small">Warum Verbraucher freigegeben oder gesperrt sind</text>
  <g>
    <rect x="49" y="446" width="414" height="84" rx="7" class="card"/><circle cx="65" cy="462" r="5" class="ok"/><text x="80" y="467" class="label" fill="#111">Überschuss: ja</text><text x="80" y="486" class="small muted">Überschuss erfüllt: PV 1036.0 W &gt;= 180.0 W, PV 15 min 1019.5</text><text x="80" y="503" class="small muted">W &gt;= 120.0 W und Netz 5.0 W &lt;= 300.0 W.</text>
    <rect x="475" y="446" width="414" height="84" rx="7" class="card"/><circle cx="491" cy="462" r="5" class="ok"/><text x="506" y="467" class="label" fill="#111">Batterieschutz: nein</text><text x="506" y="486" class="small muted">Kein Batterieschutz: SoC 95.8%, Entladung 7.9 W.</text>
    <rect x="49" y="544" width="414" height="70" rx="7" class="card"/><circle cx="65" cy="562" r="5" class="ok"/><text x="80" y="567" class="label" fill="#111">Wetterfreigabe: ja</text><text x="80" y="586" class="small muted">Batterie-SoC 95.8% ist mindestens 90%, Wetter wird großzügig</text><text x="80" y="601" class="small muted">freigegeben.</text>
    <rect x="475" y="544" width="414" height="70" rx="7" class="card"/><circle cx="491" cy="562" r="5" class="ok"/><text x="506" y="567" class="label" fill="#111">Flexible Verbraucher: ja</text><text x="506" y="586" class="small muted">Flexible Verbraucher sind erlaubt, weil Überschuss,</text><text x="506" y="601" class="small muted">Wetterfreigabe, SoC und Batterieschutz passen.</text>
  </g>

  <rect x="34" y="643" width="872" height="148" rx="7" class="card"/>
  <text x="49" y="671" class="h2">Anlagen</text><text x="626" y="671" class="muted small">Skaliert für mehrere Quellen und Verbraucher</text>
  <g><rect x="49" y="704" width="158" height="72" rx="7" class="card"/><text x="63" y="728" class="label">PV-Quellen</text><text x="63" y="759" class="big">1</text><rect x="219" y="704" width="158" height="72" rx="7" class="card"/><text x="233" y="728" class="label">Batterien</text><text x="233" y="759" class="big">1</text><rect x="391" y="704" width="158" height="72" rx="7" class="card"/><text x="405" y="728" class="label">Verbraucher</text><text x="405" y="759" class="big">1</text><rect x="561" y="704" width="158" height="72" rx="7" class="card"/><text x="575" y="728" class="label">Wallboxen</text><text x="575" y="759" class="big">0</text><rect x="731" y="704" width="158" height="72" rx="7" class="card"/><text x="745" y="728" class="label">Wärmepumpen</text><text x="745" y="759" class="big">0</text></g>

  <rect x="34" y="805" width="872" height="320" rx="7" class="card"/>
  <text x="49" y="833" class="h2">Was zuletzt passiert ist</text><text x="731" y="833" class="muted small">Letzte 10 HEMS-Ereignisse</text>
  <g font-size="13"><text x="49" y="887" class="muted">10:53:11</text><circle cx="146" cy="879" r="5" class="warn"/><text x="160" y="884" font-weight="700">Verbraucherstatus geändert</text><text x="160" y="904" class="muted">1 aktive flexible Verbraucher: switch.a8m.</text><line x1="49" y1="920" x2="889" y2="920" class="line"/><text x="49" y="951" class="muted">10:53:11</text><circle cx="146" cy="943" r="5" class="ok"/><text x="160" y="948" font-weight="700">Flexible Verbraucher freigegeben</text><text x="160" y="968" class="muted">Flexible Verbraucher sind erlaubt, weil Überschuss, Wetterfreigabe, SoC und Batterieschutz passen.</text><line x1="49" y1="984" x2="889" y2="984" class="line"/><text x="49" y="1015" class="muted">10:53:11</text><circle cx="146" cy="1007" r="5" class="ok"/><text x="160" y="1012" font-weight="700">Modus geändert</text><text x="160" y="1032" class="muted">auto -&gt; surplus_high. Flexible Verbraucher sind erlaubt.</text><line x1="49" y1="1048" x2="889" y2="1048" class="line"/><text x="49" y="1079" class="muted">10:52:37</text><circle cx="146" cy="1071" r="5" class="warn"/><text x="160" y="1076" font-weight="700">HEMS bewertet</text><text x="160" y="1096" class="muted">Flexible Verbraucher gesperrt: kein Überschuss</text></g>

  <rect x="919" y="192" width="507" height="388" rx="7" class="card"/>
  <text x="934" y="219" class="h2">Letzte HEMS-Werte</text>
  <text x="941" y="273" class="label" fill="#111">Entität</text><text x="1310" y="273" class="label" fill="#111">Wert</text>
  <g font-size="13"><line x1="934" y1="285" x2="1411" y2="285" class="line"/><text x="941" y="308">BB HEMS PV-Leistung gesamt</text><text x="1310" y="308">1036.0 W</text><line x1="934" y1="321" x2="1411" y2="321" class="line"/><text x="941" y="344">BB HEMS PV-Leistung 15 min</text><text x="1310" y="344">1019.5 W</text><line x1="934" y1="357" x2="1411" y2="357" class="line"/><text x="941" y="380">BB HEMS Batterie-SoC Minimum</text><text x="1310" y="380">95.8 %</text><line x1="934" y1="393" x2="1411" y2="393" class="line"/><text x="941" y="416">BB HEMS Netzleistung aktuell</text><text x="1310" y="416">5.0 W</text><line x1="934" y1="429" x2="1411" y2="429" class="line"/><text x="941" y="452">BB HEMS Netzleistung 15 min</text><text x="1310" y="452">4.5 W</text><line x1="934" y1="465" x2="1411" y2="465" class="line"/><text x="941" y="488">BB HEMS Netztoleranz</text><text x="1310" y="488">300.0 W</text><line x1="934" y1="501" x2="1411" y2="501" class="line"/><text x="941" y="524">BB HEMS Überschuss verfügbar</text><text x="1310" y="524">on</text><line x1="934" y1="537" x2="1411" y2="537" class="line"/><text x="941" y="560">BB HEMS Flexible Verbraucher erlaubt</text><text x="1310" y="560">on</text></g>

  <rect x="919" y="592" width="507" height="511" rx="7" class="card"/><text x="934" y="620" class="h2">Konfiguration</text>
  <g font-size="13"><line x1="934" y1="638" x2="1411" y2="638" class="line"/><text x="934" y="674" font-weight="700">Netz aktuell</text><text x="1130" y="674">sensor.power_shelly_gesamt</text><line x1="934" y1="686" x2="1411" y2="686" class="line"/><text x="934" y="714" font-weight="700">Netz 15 min</text><text x="1130" y="714">sensor.grid_average_15m</text><line x1="934" y1="726" x2="1411" y2="726" class="line"/><text x="934" y="754" font-weight="700">PV-Quellen</text><text x="1130" y="754">sensor.shellyplusplugs_b0b21c105338_switch_0_power</text><line x1="934" y1="766" x2="1411" y2="766" class="line"/><text x="934" y="794" font-weight="700">PV 15 min</text><text x="1130" y="794">sensor.pv_average_15m</text><line x1="934" y1="806" x2="1411" y2="806" class="line"/><text x="934" y="834" font-weight="700">Batterie-SoC</text><text x="1130" y="834">sensor.batterie_geschatzt_soc</text><line x1="934" y1="846" x2="1411" y2="846" class="line"/><text x="934" y="874" font-weight="700">Batterie-Entladung</text><text x="1130" y="874">sensor.batterie_discharge_energy</text><line x1="934" y1="886" x2="1411" y2="886" class="line"/><text x="934" y="914" font-weight="700">Wetter</text><text x="1130" y="914">sensor.berlin_tempelhof_wetterzustand</text><line x1="934" y1="926" x2="1411" y2="926" class="line"/><text x="934" y="954" font-weight="700">Flexible Verbraucher</text><text x="1130" y="954">switch.a8m</text><line x1="934" y1="966" x2="1411" y2="966" class="line"/><text x="934" y="994" font-weight="700">Wallboxen</text><text x="1130" y="994">nicht gesetzt</text><line x1="934" y1="1006" x2="1411" y2="1006" class="line"/><text x="934" y="1034" font-weight="700">Wärmepumpen</text><text x="1130" y="1034">nicht gesetzt</text><rect x="934" y="1054" width="124" height="32" rx="5" class="btn"/><text x="944" y="1074" fill="#1585c4">Konfiguration ändern</text></g>

  <rect x="919" y="1117" width="507" height="548" rx="7" class="card"/><text x="934" y="1145" class="h2">Einstellungen</text>
  <g font-size="13"><line x1="934" y1="1163" x2="1411" y2="1163" class="line"/><text x="934" y="1205">BB HEMS Automatik aktiv</text><rect x="1320" y="1187" width="91" height="32" rx="5" class="btn"/><text x="1331" y="1208" fill="#1585c4">Ausschalten</text><line x1="934" y1="1228" x2="1411" y2="1228" class="line"/><text x="934" y="1257">BB HEMS Batterieschutz-SoC</text><rect x="1354" y="1237" width="57" height="32" rx="5" class="field"/><text x="1366" y="1258">45,0</text><line x1="934" y1="1277" x2="1411" y2="1277" class="line"/><text x="934" y="1306">BB HEMS Betriebsart</text><rect x="1294" y="1286" width="117" height="32" rx="5" class="field"/><text x="1307" y="1307">auto</text><text x="1392" y="1307">⌄</text><line x1="934" y1="1326" x2="1411" y2="1326" class="line"/><text x="934" y="1355">BB HEMS Entladegrenze Batterie</text><rect x="1342" y="1335" width="69" height="32" rx="5" class="field"/><text x="1353" y="1356">250,0</text><line x1="934" y1="1375" x2="1411" y2="1375" class="line"/><text x="934" y="1404">BB HEMS Mindest-SoC</text><rect x="1354" y="1384" width="57" height="32" rx="5" class="field"/><text x="1366" y="1405">50,0</text><line x1="934" y1="1424" x2="1411" y2="1424" class="line"/><text x="934" y="1453">BB HEMS Netzbezug hart</text><rect x="1342" y="1433" width="69" height="32" rx="5" class="field"/><text x="1353" y="1454">350,0</text><line x1="934" y1="1473" x2="1411" y2="1473" class="line"/><text x="934" y="1502">BB HEMS Netzbezug-Toleranz</text><rect x="1342" y="1482" width="69" height="32" rx="5" class="field"/><text x="1353" y="1503">100,0</text><line x1="934" y1="1522" x2="1411" y2="1522" class="line"/><text x="934" y="1551">BB HEMS PV-Schwellwert 15 min</text><rect x="1342" y="1531" width="69" height="32" rx="5" class="field"/><text x="1353" y="1552">120,0</text><line x1="934" y1="1571" x2="1411" y2="1571" class="line"/><text x="934" y="1600">BB HEMS PV-Schwellwert aktuell</text><rect x="1342" y="1580" width="69" height="32" rx="5" class="field"/><text x="1353" y="1601">180,0</text><line x1="934" y1="1620" x2="1411" y2="1620" class="line"/><text x="934" y="1643" class="small muted">Änderungen werden direkt an Home Assistant gesendet.</text></g>
</svg>
